{
    "asset" : {
        "generator" : "Khronos glTF Blender I/O v1.6.16",
        "version" : "2.0"
    },
    "scene" : 0,
    "scenes" : [
        {
            "name" : "Scene",
            "nodes" : [
                0
            ]
        }
    ],
    "nodes" : [
        {
            "mesh" : 0,
            "name" : "Cube"
        }
    ],
    "materials" : [
        {
            "doubleSided" : true,
            "name" : "Material",
            "pbrMetallicRoughness" : {
                "baseColorFactor" : [
                    0.1135675460100174,
                    0.6893388628959656,
                    0.8000000715255737,
                    1
                ],
                "metallicFactor" : 0,
                "roughnessFactor" : 0.4000000059604645
            }
        },
        {
            "doubleSided" : true,
            "name" : "Material.001",
            "pbrMetallicRoughness" : {
                "baseColorFactor" : [
                    0.09022141993045807,
                    0.09206889569759369,
                    0.8000000715255737,
                    1
                ],
                "metallicFactor" : 0,
                "roughnessFactor" : 0.5
            }
        }
    ],
    "meshes" : [
        {
            "name" : "Cube",
            "primitives" : [
                {
                    "attributes" : {
                        "POSITION" : 0,
                        "NORMAL" : 1,
                        "TEXCOORD_0" : 2
                    },
                    "indices" : 3,
                    "material" : 0
                },
                {
                    "attributes" : {
                        "POSITION" : 4,
                        "NORMAL" : 5,
                        "TEXCOORD_0" : 6
                    },
                    "indices" : 7,
                    "material" : 1
                }
            ]
        }
    ],
    "accessors" : [
        {
            "bufferView" : 0,
            "componentType" : 5126,
            "count" : 117,
            "max" : [
                0.0073494384996593,
                -0.006481492426246405,
                0.131139874458313
            ],
            "min" : [
                -0.07322713732719421,
                -0.14106006920337677,
                -0.1383611261844635
            ],
            "type" : "VEC3"
        },
        {
            "bufferView" : 1,
            "componentType" : 5126,
            "count" : 117,
            "type" : "VEC3"
        },
        {
            "bufferView" : 2,
            "componentType" : 5126,
            "count" : 117,
            "type" : "VEC2"
        },
        {
            "bufferView" : 3,
            "componentType" : 5123,
            "count" : 474,
            "type" : "SCALAR"
        },
        {
            "bufferView" : 4,
            "componentType" : 5126,
            "count" : 12,
            "max" : [
                -0.013156965374946594,
                -0.006760336924344301,
                0.08132970333099365
            ],
            "min" : [
                -0.030498793348670006,
                -0.02130630798637867,
                0.0300735030323267
            ],
            "type" : "VEC3"
        },
        {
            "bufferView" : 5,
            "componentType" : 5126,
            "count" : 12,
            "type" : "VEC3"
        },
        {
            "bufferView" : 6,
            "componentType" : 5126,
            "count" : 12,
            "type" : "VEC2"
        },
        {
            "bufferView" : 7,
            "componentType" : 5123,
            "count" : 54,
            "type" : "SCALAR"
        }
    ],
    "bufferViews" : [
        {
            "buffer" : 0,
            "byteLength" : 1404,
            "byteOffset" : 0
        },
        {
            "buffer" : 0,
            "byteLength" : 1404,
            "byteOffset" : 1404
        },
        {
            "buffer" : 0,
            "byteLength" : 936,
            "byteOffset" : 2808
        },
        {
            "buffer" : 0,
            "byteLength" : 948,
            "byteOffset" : 3744
        },
        {
            "buffer" : 0,
            "byteLength" : 144,
            "byteOffset" : 4692
        },
        {
            "buffer" : 0,
            "byteLength" : 144,
            "byteOffset" : 4836
        },
        {
            "buffer" : 0,
            "byteLength" : 96,
            "byteOffset" : 4980
        },
        {
            "buffer" : 0,
            "byteLength" : 108,
            "byteOffset" : 5076
        }
    ],
    "buffers" : [
        {
            "byteLength" : 5184,
            "uri" : "data:application/octet-stream;base64,"
        }
    ]
}
